<svg xmlns="http://www.w3.org/2000/svg">
    <symbol id="icon-v" viewBox="0 0 23 25" xmlns="http://www.w3.org/2000/svg">
        <path d="M20.356.322l-7.753 16.973L5.002.322h-4.4l10.925 24.056L22.575.322h-2.22z" />
    </symbol>
    <symbol id="icon-cart" viewBox="0 0 20 18" xmlns="http://www.w3.org/2000/svg">
        <path d="M13.366.438L16.577 6H20v2h-1.167l-.757 9.083a1 1 0 0 1-.996.917H2.92a1 1 0 0 1-.996-.917L1.166 8H0V6h3.422L6.634.438l1.732 1L5.732 6h8.535l-2.633-4.562 1.732-1zM11 10H9v4h2v-4zm-4 0H5v4h2v-4zm8 0h-2v4h2v-4z" />
    </symbol>
    <symbol id="icon-vv" viewBox="0 0 202 30" xmlns="http://www.w3.org/2000/svg">
        <path d="M128.082 13.577l6.714-10.255h-2.408l-7.366 11.365h-3.153V3.322h-4.202v23.347h4.202v-10.32h3.342l5.968 10.32h4.57l-7.667-13.092zM19.745 3.322l-7.743 16.973L4.39 3.322H0l10.925 24.056L21.973 3.322h-2.228zM178.903 3.322h-4.202v23.347h4.202V3.322zM202.009 3.322h-4.202v23.347h4.202V3.322zM190.452 0h-4.202v30h4.202V0zM147.175 2.622L136.127 26.67h2.229l4.712-10.32h6.015l4.627 10.32h4.391L147.175 2.622zm1.162 12.065h-4.504l2.275-4.982 2.229 4.982zM76.354 3.322l-7.752 16.973L61 3.322h-4.4l10.925 24.056L78.573 3.322h-2.219zM34.381 16.348l-.755-1.66-5.477-12.066L17.1 26.67h2.228l4.712-10.32h6.015l4.627 10.32h4.391l-4.693-10.32zm-9.584-1.66l2.275-4.984 2.238 4.983h-4.513zM50.717 15.788c2.578-.737 4.731-2.342 4.731-5.972 0-6.494-7.214-6.494-10.991-6.494H40.32v23.347h4.202v-10.32h1.822l7.535 10.32h4.892l-8.055-10.88zm-3.975-1.1h-2.229V4.963h2.229c1.945 0 4.532 1.213 4.532 4.862 0 2.174-.453 4.861-4.532 4.861zM107.327 15.788c2.578-.737 4.731-2.342 4.731-5.972 0-6.494-7.215-6.494-10.992-6.494H96.93V26.678h4.202v-10.33h1.823l7.535 10.32h4.891l-8.054-10.88zm-3.985-1.1h-2.229V4.963h2.229c1.945 0 4.532 1.213 4.532 4.862 0 2.174-.453 4.861-4.532 4.861zM93.19 21.2L88.027 9.827l-3.268-7.204L73.71 26.67h2.229l4.712-10.32h6.015l4.627 10.32h4.39L93.192 21.2zm-11.793-6.513l2.275-4.982 2.238 4.982h-4.513z" />
    </symbol>
    <symbol id="icon-key" viewBox="0 0 28 61" xmlns="http://www.w3.org/2000/svg">
        <path d="M16.42 31.224c.661-.315 1.127-1.05 1.129-1.898.001-.86-.463-1.596-1.122-1.903l.003-1.55 2.189-2.281c.021.022.043.056.064.079a2.082 2.082 0 0 0 3.03.005c.834-.87.836-2.295.005-3.168-.022-.022-.054-.045-.076-.068l5.602-5.115-5.606-5.259c.033-.034.076-.056.109-.09.834-.87.837-2.295.005-3.168a2.082 2.082 0 0 0-3.029-.005c-.033.034-.054.08-.087.113l-3.984-4.181c.205-.249.336-.565.336-.916.002-.78-.603-1.404-1.339-1.405-.746-.001-1.342.631-1.343 1.4-.001.408.16.77.42 1.02L8.78 6.943c-.043-.056-.076-.113-.13-.158a2.082 2.082 0 0 0-3.029-.005c-.834.87-.837 2.295-.005 3.168.043.045.108.09.151.136l-4.942 5.15L5.73 20.38a1.15 1.15 0 0 0-.13.112c-.834.87-.837 2.296-.005 3.168a2.082 2.082 0 0 0 3.029.005c.043-.045.065-.09.108-.135l2.538 2.662-.002 1.234c-.66.315-1.127 1.05-1.128 1.898-.002.86.462 1.596 1.121 1.903l-.045 26.608a1.819 1.819 0 0 0-.554 1.323c-.001.962.69 1.743 1.544 1.745l3.18.005c.855.002 1.549-.778 1.55-1.74a1.82 1.82 0 0 0-.549-1.324l.003-1.539 9.585.017.017-10.295-9.585-.017.025-14.786h-.01zm6.787 16.948l.952.001-.01 5.623-.951-.002.01-5.622zm-2.627-.808l.952.002-.012 7.228-.953-.001.013-7.23zm-2.63.799l.952.001-.01 5.623-.952-.002.01-5.622zm-4.227-27.227l-4.224-9.883 1.709.002 2.941 6.974 3.02-6.963.865.001-4.311 9.87z" />
    </symbol>
    <symbol id="icon-vv-circle" viewBox="0 0 120 120" xmlns="http://www.w3.org/2000/svg">
        <path d="M15.942 29.736l-.502.431-.172-.138 2.271-2.84.162.127-.447.806 5.82 2.14.054-.064-3.143-5.133-1.111.81-.172-.14 1.716-2.14.162.127-.254.816 4.138 7.005-.64.807-7.882-2.614zM30.088 25.46l.607-.764-2.17-1.17-2.073 1.832.771 2.13 1.359-.713.15.17-2.19 1.94-.14-.16.415-.817-2.693-7.74.78-.69 7.33 3.925.502-.292.151.17-2.648 2.35-.151-.17zm-3.799-.573l1.805-1.595-2.88-1.574-.064.054 1.14 3.115zM35.296 17.578l-.567.324 1.589 2.77 1.092-.423.13.214-3.67 2.107-.118-.203.94-.744-3.62-6.3-1.124.423-.13-.214 3.712-2.128c1.487-.854 2.892-.817 3.648.498.53.93.34 1.8-.428 2.597h.021l3.568 1.828.729-.132.108.193-2.236 1.286-3.644-2.096zm-2.566-3.163l1.772 3.08.107-.065c1.102-.648 1.42-1.453.815-2.49-.551-.963-1.346-1.27-2.373-.709l-.32.184zM39.555 10.718l-.664.088-.076-.214 3.436-1.184.066.193-.803.443 3.764 4.927.075-.033.102-6.015-1.372.091-.076-.214 2.602-.89.065.192-.652.55-.253 8.14-.974.336-5.24-6.41zM53.77 14.708l.92-.315-1.2-2.15-2.721.43-.495 2.212 1.534.122.033.225-2.893.452-.033-.204.792-.464L51.59 7.04l1.029-.166 4.063 7.241.58.02.032.224-3.493.552-.033-.204zm-2.896-2.528l2.378-.375-1.578-2.867-.085.011-.715 3.23zM62.384 10.853l-.654-.03-.147 3.186 1.148.23-.01.247-4.214-.185.01-.236 1.19-.123.32-7.26-1.18-.252.01-.247 4.28.195c1.715.079 2.876.856 2.808 2.368-.049 1.073-.679 1.698-1.75 1.96l.011.01 2.031 3.455.688.286-.01.225-2.574-.117-1.957-3.712zm-.48-4.05l-.155 3.549.129.01c1.287.048 1.97-.47 2.03-1.67.048-1.116-.448-1.79-1.617-1.87l-.386-.02zM68.159 14.656l1.19.123 1.824-7.031-1.096-.489.064-.247 4.09 1.065-.064.226-1.169-.102-1.824 7.042 1.074.467-.063.247-4.09-1.065.064-.236zm4.117-2.485l.074-.279 3.697-2.772-1.01-.596.052-.215 3.06.802-.063.258-1.394-.07-2.8 2.029 2.06 5.159.623.373-.064.225-2.619-.686-1.616-4.228zM81.786 19.4l.934.274.268-2.446-2.471-1.233-1.688 1.509 1.173.992-.095.204-2.622-1.308.095-.182.912.081 6.163-5.399.935.468-.886 8.26.463.352-.096.204-3.17-1.573.085-.204zm-.895-3.728l2.16 1.073.371-3.25-.075-.032-2.456 2.209zM89.205 24.095l1.011.628 4.737-5.51-.766-.909.16-.193 3.197 2.741-.16.183-.99-.607-4.736 5.522.744.887-.16.193-3.197-2.741.16-.194zM93.813 28.224l.915.758 5.415-4.839-.637-1.005.192-.161 2.802 3.14-.182.161-.893-.736-5.426 4.85.626.972-.192.173-2.802-3.14.182-.173zM97.822 32.914l.808.865 6.008-4.08-.498-1.08.203-.14 2.364 3.484-.192.13-.798-.844-6.018 4.09.498 1.05-.204.14-2.363-3.486.192-.13zM15.634 71.706c.063-.301.072-.612.017-.87-.24-1.188-1.552-1.804-3.234-1.465-1.8.362-2.705 1.685-2.453 2.939.143.696.413 1.23.973 1.807l-.192.216c-.709-.308-1.679-1.365-1.942-2.662-.427-2.11.616-3.755 2.77-4.194 2.25-.46 4.153.83 4.57 2.886.219 1.06.158 1.908-.128 2.8l-2.11.427-.11-.536 1.839-1.349zM12.863 82.805l.593.823 4.13-1.852-4.638-1.491-.813.368.23 1.007-.225.108-1.657-3.692.214-.097.669.94 5.682-2.555-.262-1.125.225-.108 1.656 3.692-.214.097-.604-.834-4.152 1.863 4.639 1.491.835-.379-.22-.985.225-.108 1.646 3.67-.214.098-.669-.962-5.682 2.555.273 1.136-.225.108-1.646-3.67.204-.098zM23.405 88.13l-4.927 3.657.584 1.188-.203.15-2.589-3.484.193-.14.85.78 5.002-3.711-.498-1.038.203-.151 3.71 5.001-1.976 1.457-.216-.289.978-1.902-1.111-1.518zM25.79 93.931l1.312-1.42c.72.264 1.913.967 2.57 1.575 1.162 1.078 1.447 2.385.39 3.526l-2.934 3.176.465.963-.181.194-1.885-1.74.457-.935c-.59.035-1.694-.046-2.448-.74-.775-.714-1.005-1.786-.194-2.668.929-1.002 2.56-.612 4.068.775l.516.48.929-1.001c.715-.775.669-1.493.12-2.006-.194-.181-.506-.34-.87-.425l-1.853.673-.463-.427zm1.816 3.542l-.495-.46c-.635-.586-1.398-.797-2.049-.098-.522.571-.359 1.203.115 1.64.248.225.624.405.967.51l1.462-1.592zM27.924 106.178l1.138.381 4.758-7.795-1.064-.65.149-.247 2.254.602.527.319-.221.827c.803-.1 1.64.035 2.275.429 1.559.948 1.898 2.49.652 4.511-1.277 2.097-3.753 2.322-5.549 1.226a7.284 7.284 0 0 1-.763-.533l-1.384 2.269 1.033.96-.138.226-3.806-2.321.139-.204zm7.435-6.284l-2.907 4.752c.152.257.346.492.657.673 1.258.766 2.52-.237 3.37-1.613.82-1.344.77-2.888-.197-3.484a2.907 2.907 0 0 0-.923-.328zM44.639 110.779l.987.114.899-2.749-2.9-.952-.899 2.738.882.5-.074.236-3.834-1.248.074-.226 1.148.145 1.937-5.927-1.01-.564.073-.236 3.834 1.248-.075.226-1.008-.114-.889 2.706 2.9.952.878-2.695-.86-.5.074-.236 3.812 1.248-.074.226-1.16-.145-1.935 5.927 1.021.564-.074.236-3.812-1.248.085-.226zM56.811 106.394l-1.157.166-.118 2.466.6.03c1.984.088 3.36.618 3.28 2.248-.058 1.222-1.202 2.085-3.475 1.977l-3.636-.166.01-.236 1.146-.166.294-6.231-1.127-.274.01-.246 4.183.196-.01.236zm-1.441 6.322l.332.019c.901.039 1.564-.35 1.613-1.497.049-1.051-.511-1.563-1.466-1.645l-.332-.02-.147 3.143zm8.551-5.989l-1.146.166-.294 6.231 1.127.274-.01.246-4.172-.196.01-.236 1.146-.166.295-6.231-1.127-.274.01-.246 4.171.196-.01.236zM72.704 111.76l.92-.422-1.006-4.424-2.372 4.256.197.879 1.029-.026.055.246-3.942.897-.055-.225 1.06-.466-1.378-6.074-1.158.038-.055-.247 3.942-.896.055.235-.942.423 1.006 4.434 2.372-4.256-.197-.889-1.007.015-.055-.247 3.931-.896.055.225-1.07.466 1.377 6.073 1.169-.037.055.246-3.932.897-.054-.225zm-5.358-8.951l1.4-1.057.171-.044.35 1.553c.28.085.547.084.901.007.353-.077.6-.185.802-.39l-.35-1.553.183-.043 1.706.357c.004.857-.893 1.687-2.254 1.993-1.37.317-2.52.044-2.91-.823zM85.044 99.32l-.854.809 1.512 2.374.983-.627-.266-2.122c-.156-1.275-.019-1.758.762-2.255.214-.13.513-.27.717-.346l.779 1.573-.172.108-1.63.05.267 2.036 3.89 1.945 1.04-.101.13.214-2.289 1.458-3.257-1.895-.663.421 1.555 2.449.942-.358.14.214-3.4 2.159-.13-.203.844-.797-3.347-5.261-1.07.423-.13-.214 3.528-2.245.12.192zM90.922 94.974l-.183-.182 4.495-4.512.172.17-.65.969 4.416 4.398.962-.658.183.181-2.914 2.919-.173-.171.618-.914-4.383-4.367-1.046 1.045c1.067 1.272 2.231 2.757 2.977 4.169.54.973.64 1.766-.395 2.8l-1.184-1.174.052-.193 1.079-1.077c-.681-1.252-1.922-2.93-3-4.126l-1.026.723zM107.045 91.654l-.724 1.129-.172-.106-1.331-2.847-7.609-1.35-.534.518-.215-.139 2.173-3.398.193.128-.391 1.128 5.195 1.2-3.042-4.137-1.101.809-.215-.138 1.629-2.527.194.127-.231 1.138 3.949 5.526 2.232 2.939zM109.79 79.45c-.975 2.578-3.195 2.577-5.525 1.697-1.676-.636-3.129-1.905-3.597-3.469-.196-.696-.178-1.564.063-2.713.052-.364.263-1.277.294-1.566l-.316-.975.235-.162 1.498 1.677c-.094.505-.253 1.02-.475 1.707-.264.88-.529 1.622-.388 1.857.323.395 1.387.927 2.15 1.266-.163-.546-.254-1.628.096-2.552.572-1.514 1.963-2.25 3.982-1.486 1.815.667 2.746 2.7 1.983 4.72zm-5.707-.564l.72.286c2.309.89 4.037 1.29 4.556-.095.446-1.192-.898-1.905-1.94-2.297-1.514-.572-2.694-.61-3.16.625-.18.473-.221 1.02-.176 1.48zM108.661 51.206l-2.484 2.505 2.506 2.484 2.483-2.506-2.505-2.483zM11.669 48.794l-2.484 2.505 2.506 2.483 2.483-2.505-2.505-2.483zM60.106 99.774c-21.97.097-39.923-17.698-40.02-39.668-.097-21.97 17.699-39.923 39.668-40.02 21.97-.097 39.923 17.698 40.02 39.668.097 21.97-17.698 39.923-39.668 40.02zm-.35-79.163c-21.68.096-39.23 17.812-39.134 39.482.096 21.68 17.812 39.23 39.481 39.134 21.68-.095 39.23-17.811 39.135-39.481-.096-21.67-17.811-39.23-39.481-39.135z"/>
        <path d="M60.19 118.924C27.648 119.068 1.07 92.721.925 60.19.782 27.66 27.128 1.07 59.67.925c32.542-.143 59.122 26.203 59.265 58.745.143 32.542-26.213 59.111-58.745 59.254zM59.672 1.461C27.431 1.603 1.32 27.946 1.462 60.188c.142 32.242 26.484 58.353 58.726 58.211 32.242-.142 58.353-26.485 58.211-58.727-.153-32.242-26.495-58.353-58.727-58.21z"/>
    </symbol>
    <symbol id="icon-vv-circle-wine" viewBox="0 0 111 111" xmlns="http://www.w3.org/2000/svg">
        <path d="M14.338 26.566l-.472.397-.16-.13 2.143-2.63.15.12-.424.748 5.41 2.047.05-.06-2.887-4.814-1.043.745-.16-.13 1.62-1.983.15.12-.244.76 3.798 6.568-.604.747-7.327-2.506zM27.566 22.7l.574-.708-2.015-1.11-1.948 1.691.7 1.993 1.273-.653.14.16-2.059 1.79-.13-.15.394-.758-2.445-7.242.733-.637 6.802 3.723.472-.267.14.16-2.491 2.168-.14-.16zm-3.537-.568l1.697-1.472-2.673-1.492-.06.05 1.036 2.914zM32.492 15.393l-.532.298 1.458 2.597 1.022-.385.119.2-3.44 1.934-.109-.19.884-.687-3.322-5.906-1.052.385-.119-.2 3.48-1.954c1.394-.783 2.703-.737 3.397.497.486.872.302 1.681-.421 2.418h.02l3.311 1.736.68-.117.1.18-2.096 1.18-3.38-1.986zm-2.366-2.971l1.626 2.888.1-.06c1.033-.595 1.337-1.344.782-2.316-.506-.903-1.244-1.196-2.207-.68l-.3.168zM36.523 9.033l-.62.077-.07-.2 3.215-1.075.06.18-.752.406 3.467 4.627.07-.03.148-5.609-1.28.074-.07-.2 2.434-.808.06.18-.613.507-.307 7.589-.911.305-4.831-6.023zM49.744 12.877l.861-.286-1.1-2.016-2.542.378-.48 2.058 1.43.127.029.21-2.702.397-.03-.19.743-.427 1.826-7.421.96-.145 3.728 6.788.54.022.029.21-3.263.485-.029-.19zm-2.678-2.383l2.221-.33-1.447-2.687-.08.01-.694 3.007zM57.812 9.356l-.61-.033-.165 2.969 1.07.225-.012.23-3.929-.209.011-.22 1.11-.105.363-6.768-1.099-.245.012-.23 3.989.22c1.6.087 2.676.822 2.599 2.232-.055 1-.648 1.577-1.649 1.812l.01.01 1.864 3.239.64.273-.012.21-2.4-.132-1.792-3.478zM57.4 5.574l-.176 3.309.12.01c1.2.056 1.842-.42 1.907-1.54.055-1.04-.402-1.672-1.491-1.758l-.36-.021zM63.164 12.952l1.11.125 1.761-6.542-1.018-.465.061-.23 3.805 1.03-.06.209-1.09-.105-1.762 6.551.998.445-.061.23-3.805-1.029.061-.22zm3.861-2.282l.071-.26 3.473-2.553-.938-.564.051-.2 2.847.774-.061.24-1.3-.077-2.63 1.868 1.877 4.829.579.352-.061.21-2.437-.662-1.47-3.957zM75.832 17.493l.869.264.27-2.279-2.293-1.17L73.09 15.7l1.085.935-.09.19-2.435-1.242.091-.17.85.084 5.794-4.982.868.444-.897 7.696.428.332-.091.19-2.943-1.494.081-.19zm-.803-3.484l2.005 1.02L77.41 12l-.07-.03-2.31 2.039zM82.71 21.936l.938.595 4.465-5.099-.706-.853.15-.18 2.958 2.585-.15.17-.918-.575-4.465 5.108.686.833-.15.18-2.958-2.584.15-.18zM86.972 25.827l.846.714 5.092-4.465-.585-.943.18-.15 2.586 2.953-.17.15-.827-.695-5.102 4.476.576.912-.181.16-2.586-2.953.17-.16zM90.67 30.235l.747.813 5.638-3.752-.455-1.013.19-.129 2.175 3.27-.181.12-.736-.794-5.648 3.763.455.982-.19.13-2.175-3.271.18-.12zM99.65 41.383l-2.338 2.315 2.315 2.337 2.338-2.315-2.315-2.337zM12.217 38.311l-2.338 2.315 2.315 2.338 2.338-2.315-2.315-2.338zM54.92 92.263c-20.49-.1-37.079-16.85-36.98-37.34.1-20.49 16.85-37.079 37.34-36.98 20.49.1 37.079 16.85 36.98 37.34-.1 20.49-16.85 37.079-37.34 36.98zm.358-73.83c-20.22-.097-36.74 16.273-36.837 36.483-.098 20.22 16.272 36.739 36.482 36.837 20.22.097 36.739-16.273 36.837-36.483.098-20.21-16.273-36.739-36.482-36.837z" />
        <path d="M54.834 110.122C24.484 109.976-.076 85.176.07 54.837.217 24.497 25.017-.073 55.366.074c30.35.146 54.91 24.946 54.763 55.295-.146 30.35-24.956 54.9-55.295 54.753zM55.364.574C25.294.428.716 24.77.57 54.839c-.146 30.07 24.196 54.648 54.265 54.793 30.07.146 54.648-24.196 54.793-54.265C109.765 25.297 85.423.719 55.364.574z" />
        <path d="M5.637 55.524c-.017-2.57 1.917-3.311 4.227-3.33 1.67-.012 3.367.606 4.301 1.801.397.542.684 1.303.858 2.384.079.34.205 1.201.273 1.462l.607.742-.141.22-1.866-.95c-.087-.47-.125-.97-.162-1.64-.066-.85-.082-1.58-.291-1.742-.41-.231-1.519-.337-2.288-.38.327.421.773 1.333.779 2.253.012 1.51-.953 2.616-2.953 2.636-1.83.011-3.323-1.446-3.344-3.456zm5.157-1.435l-.72-.004c-2.3 0-3.94.231-3.937 1.611.014 1.19 1.423 1.357 2.463 1.342 1.51-.013 2.552-.367 2.538-1.608.002-.46-.155-.96-.344-1.341zM6.818 65.84c-.421-1.872.026-3.41 2.529-3.978 2.172-.49 3.876.829 4.268 2.56.46 2.023-.217 3.48-2.7 4.038-2.112.48-3.686-.818-4.097-2.62zm6.297-1.44c-.255-1.141-1.745-1.018-3.067-.725-1.521.343-2.965 1.076-2.71 2.197.244 1.091 1.695 1.028 2.976.745 1.301-.294 3.085-.976 2.8-2.217zM15.536 72.282l-5.24 2.305.283 1.2-.21.1-1.632-3.708.2-.09.616.884 5.321-2.334-.235-1.051.21-.1 2.335 5.322-2.094.92-.139-.31 1.288-1.525-.703-1.613zM16.499 78.047l1.485-1.023c.608.383 1.533 1.277 2.01 1.97.834 1.224.818 2.463-.376 3.288l-3.33 2.284.224.97-.21.14-1.35-1.977.603-.757c-.54-.092-1.528-.387-2.074-1.18-.556-.813-.551-1.833.372-2.468 1.053-.725 2.45-.028 3.532 1.547l.377.542 1.054-.725c.813-.556.926-1.226.529-1.798-.14-.21-.388-.412-.708-.563l-1.8.221-.338-.471zm.912 3.594l-.357-.522c-.457-.662-1.105-1.015-1.848-.509-.592.407-.585 1.018-.237 1.52.179.25.487.502.777.663l1.665-1.152zM25.399 86.32l-4.02 4.09.615.893-.16.17-2.777-2.734.15-.16.908.605 4.04-4.1-.956-.935-1.883.66-.19-.18 1.609-1.632 4.797 4.723-1.608 1.632-.19-.18.63-1.898-.965-.954zM28.137 90.943l.987-1.515c.71.123 1.907.599 2.605 1.052 1.246.806 1.7 1.969.904 3.185l-2.206 3.38.576.812-.14.21-1.995-1.3.275-.929c-.54.127-1.561.222-2.369-.301-.827-.535-1.203-1.486-.598-2.423.695-1.067 2.255-.97 3.86.078l.548.363.695-1.067c.534-.827.387-1.478-.2-1.87a1.906 1.906 0 0 0-.87-.255l-1.584.892-.488-.312zm2.225 2.97l-.528-.342c-.678-.443-1.418-.517-1.901.231-.393.598-.146 1.17.362 1.492.26.171.64.283.969.315l1.098-1.695zM37.13 100.637l.919.154.84-2.176-.658-.253-2.33 2.039-2.386-.922.081-.22.95-.015 2.279-1.699c-.837-.654-1.034-1.395-.76-2.114.516-1.327 1.837-1.41 3.274-.864l3.603 1.388-.08.21-1.07-.196-2.086 5.42.927.575-.08.219-3.494-1.347.07-.199zm2.995-5.236l-.34-.132c-.908-.334-1.58-.027-1.903.821-.416 1.068.102 1.61.9 1.935l.29.111 1.053-2.735zM55.576 99.276c-.043.75-.556 1.277-1.447 1.463v.02c.55.093 1.698.478 1.632 1.658-.066 1.169-1.099 1.824-3.168 1.714l-3.75-.198.012-.22 1.07-.144.309-5.809-1.05-.265.012-.23 3.58.197c1.869.09 2.866.684 2.8 1.814zm-3.728 1.652l-.142 2.639.6.033c.95.055 1.491-.343 1.536-1.272.044-.91-.414-1.313-1.474-1.378l-.52-.022zm.155-3.02l-.132 2.51.43.022c.85.044 1.291-.314 1.346-1.224.055-1.03-.584-1.252-1.324-1.296l-.32-.011zM63.978 103.107l.881-.346-.74-4.164-2.398 3.859.146.82.96.025.039.23-3.713.662-.04-.22 1.002-.385-1.022-5.725-1.08-.015-.039-.23 3.714-.663.038.22-.891.356.74 4.174 2.398-3.858-.146-.841-.94-.025-.038-.23 3.703-.662.039.22-1.022.395 1.012 5.725 1.09.015.039.231-3.703.662-.03-.23zM75.406 99.422l.752-.547-1.118-2.465-2.595 1.178 1.108 2.445.92-.206.1.211-3.428 1.553-.089-.2.883-.626-2.394-5.292-1.051.245-.1-.21 3.428-1.554.09.2-.763.557 1.098 2.425 2.596-1.177-1.089-2.405-.91.205-.1-.21 3.408-1.544.089.2-.893.627 2.394 5.291 1.061-.255.1.21-3.408 1.544-.09-.2zM84.45 94.376c-1.535 1.162-3.116 1.374-4.666-.673-1.342-1.777-.842-3.874.573-4.937 1.656-1.252 3.266-1.235 4.797.793 1.311 1.736.772 3.704-.704 4.817zm-3.905-5.14c-.933.706-.21 2.02.605 3.093.934 1.245 2.2 2.261 3.113 1.566.893-.676.24-1.97-.556-3.023-.795-1.054-2.138-2.41-3.162-1.635zM87.667 82.74l4.312 3.792.863-.666.18.15-2.575 2.928-.17-.15.555-.938-4.322-3.8-.884 1.005.76 1.844-.17.199-1.723-1.508 4.445-5.059 1.722 1.508-.17.2-1.928-.52-.895 1.016zM93.725 78.97c.05.03.15.09.2.101 1.466.747 2.659.143 3.214-.824.282-.479.465-1.188.489-1.848l.27-.029c.286.742.28 2.072-.335 3.149-1.03 1.785-2.672 2.307-4.527 1.238-1.934-1.11-2.354-3.202-1.406-4.847.958-1.665 2.57-1.908 4.374-.889l-2.279 3.95zm-.369-.232l1.221-2.294c-1.027-.595-2.206-.87-2.64-.133-.392.679.123 1.581 1.42 2.427zM95.417 68.138l-.135 1.08 2.496.802.335-1.039-1.453-1.367c-.876-.824-1.064-1.255-.79-2.074.071-.22.212-.499.313-.668l1.497.667-.06.18-1.146 1.004 1.404 1.297 3.954-.91.684-.687.219.07-.771 2.407-3.473.573-.223.7 2.566.831.464-.817.219.07-1.157 3.575-.21-.07.125-1.07-5.531-1.787-.525.948-.22-.072 1.199-3.714.22.071zM98.905 62.525l-1.8-.189c-.206-.69-.34-1.971-.246-2.8.157-1.48.982-2.406 2.421-2.26l4.018.42.464-.877.25.02-.251 2.38-.951.175c.358.422.914 1.294.809 2.244-.105.98-.778 1.746-1.888 1.63-1.269-.135-1.882-1.568-1.683-3.467l.073-.66-1.27-.136c-.979-.105-1.49.333-1.564 1.032-.022.25.027.56.175.891l1.516.997-.073.6zm1.636-3.332l-.063.63c-.084.8.183 1.49 1.072 1.585.72.073 1.102-.405 1.165-.995.031-.31-.047-.7-.155-1l-2.019-.22z" />
    </symbol>
    <symbol id="icon-wing" viewBox="0 0 33 111" xmlns="http://www.w3.org/2000/svg">
        <path fill-rule="evenodd" clip-rule="evenodd" d="M32.993.256L5.688 39.022c-6.36 9.03-6.36 23.671 0 32.702l27.305 38.765V.256z"/>
    </symbol>
    <symbol id="icon-grape" viewBox="0 0 41 48" xmlns="http://www.w3.org/2000/svg">
        <path d="M17.186 29.131c-1.493-.45-2.629-1.323-3.387-2.638-.102-.18-.202-.249-.431-.177-1.278.358-2.223 1.124-2.776 2.247-.909 1.846-.456 3.783 1.152 5.123.825.695 1.807 1.029 3.037 1.02 1.12-.017 2.177-.473 3.052-1.319.198-.191.287-.352.126-.64-.537-1.017-.644-2.117-.501-3.227.038-.24-.042-.32-.272-.389zM15.958 35.81c-.44.042-.548.283-.596.603-.249 1.772.831 3.375 2.635 3.903.27.079.49.067.709-.204.873-1.096 2.038-1.783 3.447-2.042.2-.041.279-.102.328-.292.136-.561.163-1.121-.02-1.67-.042-.11-.152-.25-.253-.269-1.24-.192-2.274-.755-3.16-1.6-.03-.03-.07-.04-.02-.01-.697.445-1.344.88-2.032 1.264-.309.151-.678.284-1.038.316zM23.098 24.733c.64.116 1.26.202 1.862.359.861.214 1.594.67 2.228 1.265.201.19.312.228.53.017 1.034-.987 2.28-1.524 3.74-1.594.28-.012.37-.102.418-.373.316-2.102-.876-3.964-2.94-4.69a4.533 4.533 0 0 0-5.15 1.582c-.764 1.035-.996 2.206-.688 3.434zM18.354 19.554c-1.508.18-2.684.937-3.425 2.242-1.118 1.947-.462 4.473 1.566 5.65.351.207.772.305 1.143.482.25.119.34-.002.459-.183.04-.07.287-.421.793-1.115.148-.2.377-.472.765-.745.548-.253 1.066-.536 1.605-.74.32-.122.5-.173.436-.603-.167-1.179.005-2.32.659-3.404-1.048-1.183-2.382-1.775-4-1.584zM27.683 44.355c.195-.822.129-1.681-.246-2.469-.06-.12-.262-.238-.412-.257-1.26-.182-2.354-.665-3.21-1.59-.14-.149-.302-.298-.383-.477-.172-.4-.473-.397-.832-.325-1.738.351-2.972 1.289-3.562 2.913-.157.43-.194.9-.29 1.352.065 2.52 2.348 4.545 4.956 4.268 2.079-.223 3.52-1.502 3.979-3.415zM31.186 36.972c.018-.32-.074-.65-.156-.959a.437.437 0 0 0-.282-.248c-1.161-.183-2.145-.706-2.98-1.471-.21-.199-.32-.148-.5.023-.824.775-1.791 1.291-2.93 1.489a.442.442 0 0 0-.298.282c-.088.27-.116.56-.175.84.084 2.13 2.134 3.757 4.282 3.394 1.738-.302 2.94-1.7 3.039-3.35z" />
        <path d="M39.302.33c-1.028.206-2.087.393-3.075.74-1.856.651-3.53 1.622-4.83 3.09-.695.785-1.25 1.648-1.553 2.65a.629.629 0 0 1-.278.342c-1.894 1.002-3.285 2.48-4.424 4.208-.733 1.105-1.305 2.269-1.677 3.53-.03.101-.069.191-.108.282-.01.02-.04.02-.1.05-.142-.379-.275-.748-.427-1.117-1.016-2.494-2.59-4.594-4.86-6.19a1.242 1.242 0 0 1-.352-.437c-.912-1.724-2.349-2.865-4.223-3.513-1.052-.363-2.133-.437-3.262-.33-1.34.14-2.627.447-3.844.985a8.677 8.677 0 0 0-2.47 1.626c-.417.393-.324.812.187 1.109.572.316 1.135.643 1.767.999-.24.121-.429.212-.618.303-1.057.547-2.123 1.064-3.16 1.66-.568.324-1.105.728-1.361 1.35-.187.45.005.82.516.926.37.078.74.135 1.121.213.36.078.711.155 1.092.243-.345.892-.689 1.774-1.033 2.647-.551 1.403-1.123 2.797-1.644 4.21-.068.18.043.47.164.64.162.228.442.246.711.145 1.517-.57 3.043-1.15 4.56-1.72.818-.305 1.626-.61 2.514-.936.061.21.142.4.183.6.104.489.197.988.29 1.477.093.49.614.717 1.093.464.668-.345 1.124-.908 1.48-1.52.594-1.024 1.117-2.077 1.67-3.12.05-.09.11-.171.178-.282.354.558.707 1.076 1.02 1.624.304.528.885.574 1.282.152a8.794 8.794 0 0 0 2.009-3.353 10.9 10.9 0 0 0 .563-4.184c2.556 2.454 3.822 6.536 4.133 9.864l1.54-.01c-.009.22-.027.43-.026.66h.02c.036-2.23.555-5.524 1.622-7.48.93-1.716 2.2-3.164 3.873-4.325.403 1.987 1.69 3.12 3.544 3.707.901.285 1.832.399 2.78.063.988-.347 1.661-1.36 1.485-2.37-.332-1.798-1.991-3.357-3.893-3.645a6.376 6.376 0 0 0-.98-.084c-.32.002-.65.064-1.1.117.257-.401.425-.743.663-1.034 1.141-1.397 2.595-2.397 4.321-2.988.998-.336 2.027-.563 3.055-.82.43-.112.698-.364.646-.723-.043-.35-.334-.588-.784-.495zM32.49 7.593c1.779-.101 2.915.902 3.514 2.298.234.538-.013 1.12-.522 1.293-.249.082-.539.074-.809.105-.88.006-1.662-.269-2.355-.745-.823-.554-1.378-1.29-1.394-2.31-.002-.21.007-.39.307-.433.42-.052.829-.185 1.259-.208zM36.12 31.39c.576-2.193-.557-4.336-2.883-5.141-1.784-.629-3.56-.047-4.772 1.17-.16.161-.158.291-.057.5.81 1.596.82 3.215.03 4.83-.108.211-.087.331.074.49.906.884 1.989 1.358 3.279 1.37 2.05-.004 3.841-1.335 4.33-3.218zM18.724 30.392c.005 2.37 2.107 4.316 4.517 4.26 2.35.016 4.458-1.868 4.453-4.298-.016-2.42-2.028-4.297-4.498-4.291-2.41.015-4.478 1.879-4.472 4.329z" />
    </symbol>
    
    <symbol id="icon-grape2" viewBox="0 0 17 17" xmlns="http://www.w3.org/2000/svg">
        <path fill-rule="evenodd" clip-rule="evenodd" d="M4 15.7a1.7 1.7 0 1 0 0-3.4 1.7 1.7 0 0 0 0 3.4zM4 17a3 3 0 1 0 0-6 3 3 0 0 0 0 6z" />
        <path fill-rule="evenodd" clip-rule="evenodd" d="M4 10.7a1.7 1.7 0 1 0 0-3.4 1.7 1.7 0 0 0 0 3.4zM4 12a3 3 0 1 0 0-6 3 3 0 0 0 0 6z" />
        <path d="M8 4a3 3 0 1 1-6 0 3 3 0 0 1 6 0z" fill="none"/>
        <path d="M8 4a3 3 0 1 1-6 0 3 3 0 0 1 6 0z" fill="none"/>
        <path fill-rule="evenodd" clip-rule="evenodd" d="M5 5.7a1.7 1.7 0 1 0 0-3.4 1.7 1.7 0 0 0 0 3.4zM5 7a3 3 0 1 0 0-6 3 3 0 0 0 0 6z" />
        <path d="M11 7a3 3 0 1 1-6 0 3 3 0 0 1 6 0z" fill="none"/>
        <path d="M11 7a3 3 0 1 1-6 0 3 3 0 0 1 6 0z" fill="none"/>
        <path fill-rule="evenodd" clip-rule="evenodd" d="M8 8.7a1.7 1.7 0 1 0 0-3.4 1.7 1.7 0 0 0 0 3.4zM8 10a3 3 0 1 0 0-6 3 3 0 0 0 0 6z" />
        <path d="M15 10a3 3 0 1 1-6 0 3 3 0 0 1 6 0z" fill="none"/>
        <path d="M15 10a3 3 0 1 1-6 0 3 3 0 0 1 6 0z" fill="none"/>
        <path fill-rule="evenodd" clip-rule="evenodd" d="M12 11.7a1.7 1.7 0 1 0 0-3.4 1.7 1.7 0 0 0 0 3.4zm0 1.3a3 3 0 1 0 0-6 3 3 0 0 0 0 6z" />
        <path d="M11 12a3 3 0 1 1-6 0 3 3 0 0 1 6 0z" fill="none"/>
        <path d="M11 12a3 3 0 1 1-6 0 3 3 0 0 1 6 0z" fill="none"/>
        <path fill-rule="evenodd" clip-rule="evenodd" d="M8 13.7a1.7 1.7 0 1 0 0-3.4 1.7 1.7 0 0 0 0 3.4zM8 15a3 3 0 1 0 0-6 3 3 0 0 0 0 6zM12.296 4.469a7.236 7.236 0 0 0-1.744 1.874l-1.104-.686a8.53 8.53 0 0 1 2.077-2.235c.95-.7 2.2-1.255 3.585-1.016l-.22 1.281c-.9-.155-1.794.192-2.594.782z" />
    </symbol>
    
    <symbol id="icon-star" viewBox="0 0 13 12" xmlns="http://www.w3.org/2000/svg">
        <path d="M6.5 0l1.46 4.491h4.722l-3.82 2.776 1.459 4.492L6.5 8.983l-3.82 2.776 1.459-4.492-3.82-2.776H5.04L6.5 0z"/>
    </symbol>
    
    <symbol id="icon-wa" viewBox="0 0 43 43" xmlns="http://www.w3.org/2000/svg">
        <path d="M11.604 34.89l1.523.89a16.724 16.724 0 0 0 8.46 2.277A16.822 16.822 0 1 0 4.763 21.234c0 3.02.793 5.915 2.28 8.462l.887 1.522-1.374 5.05 5.047-1.378zM.567 42.262L3.41 31.815a20.932 20.932 0 0 1-2.852-10.58C.558 9.62 9.972.205 21.586.205 33.2.206 42.614 9.62 42.614 21.234c0 11.614-9.414 21.028-21.028 21.028a20.931 20.931 0 0 1-10.577-2.85L.567 42.263zm13.43-30.894a7.11 7.11 0 0 1 .848-.009c.113.009.227.021.34.034.335.038.703.242.827.524a178.712 178.712 0 0 1 1.825 4.29c.13.319.053.729-.196 1.128-.17.27-.355.532-.553.783-.237.305-.748.864-.748.864s-.209.248-.129.557c.03.118.127.288.215.431l.124.2a13.322 13.322 0 0 0 2.145 2.666c.252.244.498.495.763.728a12.636 12.636 0 0 0 3.302 2.103l.01.004c.179.078.27.12.53.231.13.055.265.103.402.14a.736.736 0 0 0 .771-.274c1.523-1.844 1.662-1.964 1.674-1.964v.004a1.014 1.014 0 0 1 .795-.267c.126.008.255.032.372.084 1.117.511 2.944 1.308 2.944 1.308l1.224.549c.206.099.393.332.4.557.008.14.02.368-.028.784-.067.545-.231 1.199-.395 1.542a2.427 2.427 0 0 1-.442.635 5.003 5.003 0 0 1-.694.605 7.776 7.776 0 0 1-.262.19c-.262.166-.53.32-.806.462a4.183 4.183 0 0 1-1.752.484c-.389.021-.777.05-1.169.03-.017 0-1.194-.184-1.194-.184a19.866 19.866 0 0 1-8.075-4.302c-.475-.418-.915-.868-1.365-1.316-1.871-1.861-3.284-3.87-4.142-5.766a7.297 7.297 0 0 1-.696-2.973 5.739 5.739 0 0 1 1.186-3.533c.153-.198.299-.404.549-.642.267-.252.435-.386.618-.48a2.02 2.02 0 0 1 .78-.21l.002.003z" />
    </symbol>
    
    <symbol id="icon-vl" viewBox="0 0 11 16" xmlns="http://www.w3.org/2000/svg">
        <path fill-rule="evenodd" clip-rule="evenodd" d="M5.5 14.7c2.358 0 4.2-1.843 4.2-4.033 0-.432-.232-1.243-.744-2.373C8.47 7.219 7.81 6.025 7.134 4.896A68.06 68.06 0 0 0 5.5 2.307a68.06 68.06 0 0 0-1.634 2.59C3.19 6.024 2.53 7.218 2.044 8.293c-.512 1.13-.744 1.94-.744 2.373 0 2.19 1.842 4.033 4.2 4.033zM4.713 1.144C3.193 3.405 0 8.422 0 10.667 0 13.612 2.462 16 5.5 16s5.5-2.388 5.5-5.333c0-2.245-3.193-7.262-4.713-9.523C5.812.437 5.5 0 5.5 0s-.312.437-.787 1.144z" />
        <path fill-rule="evenodd" clip-rule="evenodd" d="M2.627 9.27a4.778 4.778 0 0 1 .935-2.137l.782.623a3.781 3.781 0 0 0-.729 1.671c-.109.689.002 1.444.606 2.136l-.754.658c-.833-.956-.986-2.026-.84-2.95z" />
    </symbol>
    <symbol id="icon-percent" viewBox="0 0 14 12" xmlns="http://www.w3.org/2000/svg">
        <path d="M.45 3.05c0-.88.274-1.56.824-2.04C1.824.53 2.5.29 3.3.29c.78 0 1.435.235 1.965.705.54.46.81 1.12.81 1.98 0 .88-.28 1.565-.84 2.055-.55.49-1.22.735-2.01.735-.76 0-1.415-.235-1.965-.705C.72 4.58.45 3.91.45 3.05zM9.81.455h1.53L3.613 11h-1.53L9.81.455zm-5.07 2.58c0-.48-.146-.86-.436-1.14a1.4 1.4 0 0 0-1.05-.435c-.4 0-.745.135-1.035.405-.28.27-.42.65-.42 1.14 0 .51.135.905.405 1.185.27.27.625.405 1.065.405.43 0 .78-.135 1.05-.405.28-.28.42-.665.42-1.155zM7.453 8.45c0-.88.275-1.56.825-2.04.55-.48 1.22-.72 2.01-.72.79 0 1.45.235 1.98.705.54.46.81 1.12.81 1.98 0 .88-.28 1.57-.84 2.07-.56.49-1.235.735-2.025.735-.75 0-1.4-.24-1.95-.72-.54-.48-.81-1.15-.81-2.01zm4.275-.015c0-.48-.14-.86-.42-1.14a1.4 1.4 0 0 0-1.05-.435c-.4 0-.745.135-1.035.405-.28.27-.42.65-.42 1.14 0 .51.135.905.405 1.185.27.27.625.405 1.065.405.43 0 .78-.135 1.05-.405.27-.28.405-.665.405-1.155z" />
    </symbol>
    
    <symbol id="icon-time" viewBox="0 0 20 20" xmlns="http://www.w3.org/2000/svg">
        <path d="M10 20a10 10 0 1 1 0-20 10 10 0 0 1 0 20zm0-2a8 8 0 1 0 0-16 8 8 0 0 0 0 16zm-1-7.59V4h2v5.59l3.95 3.95-1.41 1.41L9 10.41z"/>
    </symbol>
    
    <symbol id="icon-size" viewBox="0 0 16 6" xmlns="http://www.w3.org/2000/svg">
        <path fill-rule="evenodd" clip-rule="evenodd" d="M12.76 6l2.95-2.952-.017-.017.017-.017L12.696 0l-.737.737 1.513 1.513h-10.3L4.684.738 3.947 0 .997 2.95l.017.019-.017.016L4.011 6l.737-.737L3.235 3.75h10.3l-1.512 1.512.737.737zM2.5 3.014v-.093l-.046.046.046.047z" />
    </symbol>
    
    <symbol id="icon-time" viewBox="0 0 15 15" xmlns="http://www.w3.org/2000/svg">
        <path d="M7.501 14.583a7.083 7.083 0 1 1 0-14.166 7.083 7.083 0 0 1 0 14.166zm0-1.417a5.667 5.667 0 1 0 0-11.333 5.667 5.667 0 0 0 0 11.333zM8.21 7.5h2.833v1.416h-4.25V3.958H8.21V7.5z" />
    </symbol>
    
    <symbol id="icon-circle" viewBox="0 0 15 15" xmlns="http://www.w3.org/2000/svg">
        <path d="M7.501 14.583a7.083 7.083 0 1 1 0-14.166 7.083 7.083 0 0 1 0 14.166zm0-1.417a5.667 5.667 0 1 0 0-11.333 5.667 5.667 0 0 0 0 11.333z" />
    </symbol>
    
    <symbol id="icon-bg-btn" viewBox="0 0 33 111" xmlns="http://www.w3.org/2000/svg">
        <path fill-rule="evenodd" clip-rule="evenodd" d="M33 0L5.517 39.018c-6.36 9.03-6.36 23.671 0 32.702L33 110.737V0z" />
    </symbol>
    
    <symbol id="icon-tabaco" viewBox="0 0 13 14" xmlns="http://www.w3.org/2000/svg">
        <path d="M12.875.125v1.417c0 6.819-3.806 9.916-8.5 9.916H1.714c-.116.646-.172 1.351-.172 2.125H.125c0-.965.082-1.841.245-2.643-.163-.917-.245-2.16-.245-3.732A7.083 7.083 0 0 1 7.208.125c1.417 0 2.834.708 5.667 0zM7.208 1.542a5.667 5.667 0 0 0-5.666 5.666c0 .257.002.504.007.741.888-1.4 2.19-2.508 3.891-3.48l.703 1.23c-2.022 1.155-3.364 2.468-4.052 4.343h2.284c4.26 0 6.992-2.815 7.081-8.226-.972.095-1.875.034-2.989-.133-.815-.122-.975-.141-1.259-.141z" />
    </symbol>

    <symbol id="icon-nophoto" viewBox="0 0 24 24" xmlns="http://www.w3.org/2000/svg">
        <path d="M19.587 21H3.002a1 1 0 0 1-1-1V6a1 1 0 0 1 1-1h.586L1.395 2.808 2.81 1.393l19.799 19.8-1.416 1.414L19.587 21zm-14-14H4.003v12h13.585l-2.18-2.18a5.5 5.5 0 0 1-7.725-7.726L5.588 7zm3.525 3.525a3.5 3.5 0 0 0 4.864 4.865l-4.864-4.865zm12.89 7.26l-2-2V7h-3.828l-2-2H9.83l-.307.307-1.414-1.414L9.002 3h6l2 2h4a1 1 0 0 1 1 1v11.786zM11.264 7.05a5.5 5.5 0 0 1 6.188 6.188L15.114 10.9a3.515 3.515 0 0 0-1.513-1.512L11.264 7.05z" />
    </symbol>
    
    <symbol id="icon-archive" viewBox="0 0 20 18" xmlns="http://www.w3.org/2000/svg">
        <path d="M10.414 2H19a1 1 0 0 1 1 1v14a1 1 0 0 1-1 1H1a1 1 0 0 1-1-1V1a1 1 0 0 1 1-1h7.414l2 2zM2 2v14h16V4H9.586l-2-2H2zm9 8h3l-4 4-4-4h3V6h2v4z" />
    </symbol>
    
    <symbol id="icon-vk" viewBox="0 0 24 24" xmlns="http://www.w3.org/2000/svg">
        <path d="M21.579 6.855c.14-.465 0-.806-.662-.806h-2.193c-.558 0-.813.295-.953.619 0 0-1.115 2.719-2.695 4.482-.51.513-.743.675-1.021.675-.139 0-.341-.162-.341-.627V6.855c0-.558-.161-.806-.626-.806H9.642c-.348 0-.558.258-.558.504 0 .528.79.65.871 2.138v3.228c0 .707-.127.836-.407.836-.743 0-2.551-2.729-3.624-5.853-.209-.607-.42-.852-.98-.852H2.752c-.627 0-.752.295-.752.619 0 .582.743 3.462 3.461 7.271 1.812 2.601 4.363 4.011 6.687 4.011 1.393 0 1.565-.313 1.565-.853v-1.966c0-.626.133-.752.574-.752.324 0 .882.164 2.183 1.417 1.486 1.486 1.732 2.153 2.567 2.153h2.192c.626 0 .939-.313.759-.931-.197-.615-.907-1.51-1.849-2.569-.512-.604-1.277-1.254-1.51-1.579-.325-.419-.231-.604 0-.976.001.001 2.672-3.761 2.95-5.04z"/>
    </symbol>
    
    <symbol id="icon-in" viewBox="0 0 28 28" xmlns="http://www.w3.org/2000/svg">
        <path d="M14.001.667c3.623 0 4.075.013 5.496.08 1.42.066 2.387.289 3.238.62a6.5 6.5 0 0 1 2.362 1.537 6.543 6.543 0 0 1 1.538 2.362c.329.85.553 1.818.62 3.238.062 1.421.08 1.873.08 5.496 0 3.622-.014 4.075-.08 5.496-.067 1.42-.291 2.387-.62 3.237a6.51 6.51 0 0 1-1.538 2.363 6.553 6.553 0 0 1-2.362 1.537c-.85.33-1.818.553-3.238.62-1.421.063-1.873.08-5.496.08-3.622 0-4.074-.013-5.496-.08-1.42-.067-2.386-.29-3.237-.62a6.521 6.521 0 0 1-2.363-1.537 6.539 6.539 0 0 1-1.537-2.363c-.33-.85-.553-1.817-.62-3.237C.685 18.075.668 17.623.668 14s.013-4.075.08-5.496c.067-1.421.29-2.387.62-3.237a6.507 6.507 0 0 1 1.537-2.363 6.53 6.53 0 0 1 2.363-1.537c.85-.331 1.816-.554 3.237-.62 1.422-.063 1.874-.08 5.496-.08zm0 6.666a6.667 6.667 0 1 0 0 13.334 6.667 6.667 0 0 0 0-13.334zM22.668 7a1.667 1.667 0 1 0-3.333 0 1.667 1.667 0 0 0 3.333 0zm-8.667 3a4 4 0 1 1 0 8 4 4 0 0 1 0-8z" />
    </symbol>
    
    <symbol id="icon-fb" viewBox="0 0 24 24" xmlns="http://www.w3.org/2000/svg">
        <path d="M16.536 24v-9.288h3.11l.466-3.61h-3.576V8.796c0-1.045.29-1.758 1.79-1.758h1.911v-3.23a25.586 25.586 0 0 0-2.786-.142c-2.756 0-4.643 1.682-4.643 4.773v2.661H9.691v3.611h3.117V24H1.333A1.334 1.334 0 0 1 0 22.667V1.333A1.333 1.333 0 0 1 1.333 0h21.334A1.333 1.333 0 0 1 24 1.333v21.334A1.334 1.334 0 0 1 22.667 24h-6.131z" />
    </symbol>
    
    <symbol id="icon-tg" viewBox="0 0 28 28" xmlns="http://www.w3.org/2000/svg">
        <path d="M14.001 27.333C6.637 27.333.668 21.363.668 14 .668 6.636 6.638.667 14.001.667 21.365.667 27.335 6.636 27.335 14S21.365 27.333 14 27.333zM9.855 15.56l.017-.01 1.16 3.827c.15.415.355.49.604.455.25-.034.383-.168.547-.326l1.584-1.53 3.4 2.517c.621.343 1.068.166 1.222-.576l2.21-10.43c.244-.97-.183-1.36-.936-1.05L6.685 13.451c-.885.354-.88.85-.16 1.07l3.33 1.04v-.001z" />
    </symbol>
    
    <symbol id="icon-tw" viewBox="0 0 56.693 56.693" xmlns="http://www.w3.org/2000/svg">
        <path d="M52.837 15.065a20.11 20.11 0 0 1-5.805 1.591 10.125 10.125 0 0 0 4.444-5.592 20.232 20.232 0 0 1-6.418 2.454 10.093 10.093 0 0 0-7.377-3.192c-5.581 0-10.106 4.525-10.106 10.107 0 .791.089 1.562.262 2.303-8.4-.422-15.848-4.445-20.833-10.56a10.055 10.055 0 0 0-1.368 5.082c0 3.506 1.784 6.6 4.496 8.412a10.078 10.078 0 0 1-4.578-1.265l-.001.128c0 4.896 3.484 8.98 8.108 9.91a10.162 10.162 0 0 1-4.565.172c1.287 4.015 5.019 6.938 9.441 7.019a20.276 20.276 0 0 1-12.552 4.327c-.815 0-1.62-.048-2.411-.142a28.6 28.6 0 0 0 15.493 4.541c18.591 0 28.756-15.4 28.756-28.756 0-.438-.009-.875-.028-1.309a20.47 20.47 0 0 0 5.042-5.23z"/>
    </symbol>
    
    <symbol id="icon-menu" viewBox="0 0 21 16" xmlns="http://www.w3.org/2000/svg">
        <path fill-rule="evenodd" clip-rule="evenodd" d="M20.583 3.306H0V.416h20.583v2.89zM20.583 9.445H0v-2.89h20.583v2.89zM20.583 15.584H0v-2.89h20.583v2.89z" />
    </symbol>
    
    <symbol id="icon-lounge" viewBox="0 0 22 23" xmlns="http://www.w3.org/2000/svg">
        <path fill-rule="evenodd" clip-rule="evenodd" d="M9.977.033L9.19.108C7.284.288 4.605.966 3.86 1.455c-.354.232-.722.702-.826 1.052-.127.426-.11.773.184 3.784.34 3.476.25 3.087.812 3.465.655.44 1.467 2.018 1.467 2.851 0 .006.277-.046.615-.114a24.62 24.62 0 0 1 9.782.003c.334.067.606.117.606.111 0-.106.138-.7.22-.952.32-.973.885-1.738 1.56-2.11l.187-.103.308-3.109c.323-3.275.332-3.522.137-3.953-.383-.847-.995-1.196-3.04-1.73C14.096.189 11.349-.1 9.977.034zM1.894 10.09c-1.727.368-2.37 2.54-1.524 5.157.491 1.519 1.763 3.297 2.978 4.164.173.123.315.24.315.258 0 .018-.189.654-.419 1.412-.23.76-.419 1.453-.42 1.543 0 .188.2.376.397.376.29 0 .365-.15.822-1.656l.432-1.425h13.047l.433 1.425c.456 1.505.53 1.656.82 1.656.199 0 .398-.189.397-.376 0-.09-.189-.784-.419-1.543a58.384 58.384 0 0 1-.419-1.412c0-.019.142-.135.315-.258.515-.368 1.456-1.358 1.88-1.978 1.414-2.072 1.867-4.587 1.103-6.123-.67-1.346-2.362-1.7-3.38-.708-.431.42-.765 1.221-.94 2.257-.023.139-.097.264-.233.398-.24.235-.433.251-1.112.094-2.867-.665-6.535-.692-9.548-.072-1.093.225-1.25.223-1.494-.016-.142-.14-.216-.264-.24-.404-.358-2.12-1.327-3.08-2.79-2.769z" />
    </symbol>
    
    <symbol id="icon-phone" viewBox="0 0 23 21" xmlns="http://www.w3.org/2000/svg">
        <path fill-rule="evenodd" clip-rule="evenodd" d="M9.025.111C2.99 1.036-.843 4.206.159 7.444c.133.433.753 1.013 1.224 1.147.238.067.996.105 2.12.105 1.692 0 1.765-.007 2.208-.217.768-.363 1.203-1.187 1.022-1.935-.164-.674-.234-.608 1.121-1.064 2.56-.863 5.292-.791 7.833.207.589.232.629.264.608.496-.108 1.258.058 1.734.772 2.21l.39.26 1.906.027c1.236.018 2.026-.006 2.249-.069 1.502-.422 1.86-2.635.702-4.332C21.05 2.428 18.16.893 14.696.233c-1.292-.247-4.42-.314-5.671-.122zm.447 7.556c-.314.12-.421.325-.47.9l-.047.556h-.562c-1.033 0-1.014-.01-2.478 1.465-2.013 2.029-2.688 3.035-3.203 4.773-.347 1.17-.444 5.165-.133 5.46l.189.179h17.465l.189-.18c.311-.295.213-4.29-.134-5.46-.523-1.758-1.173-2.727-3.202-4.772-1.464-1.476-1.446-1.465-2.479-1.465h-.561l-.048-.565c-.056-.663-.25-.916-.706-.916-.461 0-.711.343-.711.973v.508H10.42v-.508c0-.712-.432-1.144-.948-.948zm.841 4.351c-2.99 1.137-3.237 4.892-.41 6.256 3.487 1.685 6.895-2.583 4.237-5.307-.97-.995-2.626-1.406-3.827-.949zm2.306 1.412c1.86 1.035 1.174 3.75-.98 3.88-2.525.153-3.256-3.213-.882-4.054.513-.182 1.367-.102 1.862.174z" />
    </symbol>
    
    <symbol id="icon-filter" viewBox="0 0 24 24" xmlns="http://www.w3.org/2000/svg">
        <path d="M4 17h8.1c.4 1.7 2 3 3.9 3s3.4-1.3 3.9-3h.1c.6 0 1-.4 1-1s-.4-1-1-1h-.1c-.4-1.7-2-3-3.9-3s-3.4 1.3-3.9 3H4c-.6 0-1 .4-1 1s.4 1 1 1zm12-3c1.1 0 2 .9 2 2s-.9 2-2 2-2-.9-2-2 .9-2 2-2zM4 9h.1c.4 1.7 2 3 3.9 3s3.4-1.3 3.9-3H20c.6 0 1-.4 1-1s-.4-1-1-1h-8.1c-.4-1.7-2-3-3.9-3S4.6 5.3 4.1 7H4c-.6 0-1 .4-1 1s.4 1 1 1zm4-3c1.1 0 2 .9 2 2s-.9 2-2 2-2-.9-2-2 .9-2 2-2z"/>
    </symbol>
    
    <symbol id="icon-tg" viewBox="0 0 6.35 6.35" xmlns="http://www.w3.org/2000/svg">
        <path d="M1.058-56.545c-.586 0-1.058.472-1.058 1.058v4.233c0 .587.472 1.059 1.058 1.059h4.234c.586 0 1.058-.472 1.058-1.059v-4.233c0-.586-.472-1.058-1.058-1.058zm.795 1.058h2.644c.435 0 .795.358.795.793v2.647c0 .435-.36.792-.795.792H1.853a.798.798 0 0 1-.795-.792v-2.647c0-.435.36-.793.795-.793zm0 .53a.258.258 0 0 0-.266.263v2.647c0 .15.114.263.266.263h2.644a.259.259 0 0 0 .266-.263v-2.647a.259.259 0 0 0-.266-.263zm2.38.264a.265.265 0 0 1 .265.264.265.265 0 0 1-.265.265.265.265 0 0 1-.264-.265.265.265 0 0 1 .264-.264zm-1.058.265c.581 0 1.058.477 1.058 1.058 0 .582-.477 1.06-1.058 1.06a1.063 1.063 0 0 1-1.059-1.06c0-.581.478-1.058 1.059-1.058zm0 .53a.526.526 0 0 0-.53.528c0 .296.235.53.53.53.295 0 .53-.234.53-.53a.525.525 0 0 0-.53-.529zM1.058 0C.472 0 0 .472 0 1.058v4.234C0 5.878.472 6.35 1.058 6.35h4.234c.586 0 1.058-.472 1.058-1.058V1.058C6.35.472 5.878 0 5.292 0zm3.945 1.513c.138.01.179.143.146.297L4.53 4.675c-.04.186-.18.21-.349.086l-.874-.637-.48.463c-.075.073-.215.094-.257-.033l-.36-1.105-.851-.268c-.329-.104-.094-.251.018-.294L4.83 1.546a.398.398 0 0 1 .172-.033zm-.613.596a.195.195 0 0 0-.066.026L2.375 3.37c-.012.007-.025.006-.012.044l.315.967.064-.657c.001-.013.002-.021.016-.034l1.645-1.477c.091-.081.05-.115-.013-.104z"/>
    </symbol>
    
    <symbol viewBox="0 75.9 595.3 690" xml:space="preserve" id="icon-search" xmlns="http://www.w3.org/2000/svg">
        <path d="M276.4 315c-45.2 0-82 36.8-82 82s36.8 82 82 82 82-36.8 82-82-36.8-82-82-82zM400.6 507.3l-13.8 13.8 26.8 26.8c2.1 2.1 4.6 2.4 5.9 2.4 1.3 0 3.8-.3 5.9-2.4l2.1-2.1c3.2-3.2 3.2-8.5 0-11.8l-26.9-26.7z"/>
        <path d="M297.6 76.6 0 248.8v344.4l297.6 172.2 297.6-172.2V248.8L297.6 76.6zm143.6 483.1-2.1 2.1c-5.4 5.4-12.6 8.2-19.7 8.2s-14.3-2.7-19.7-8.2l-35.4-35.4c-8.2-8.2-10.2-20.2-6.1-30.3l-11.4-11.4c-19.3 15.5-43.7 24.8-70.4 24.8C214.3 509.4 164 459.1 164 397s50.3-112.4 112.4-112.4c62.1 0 112.4 50.3 112.4 112.4 0 26.6-9.3 51.1-24.8 70.4l11.4 11.4c3.4-1.4 7-2.1 10.6-2.1 7.1 0 14.3 2.7 19.7 8.2l35.4 35.4c11 10.8 11 28.5.1 39.4z"/>
    </symbol>
</svg>